<svg id="Capa_1" enable-background="new 0 0 511.996 511.996" height="512" viewBox="0 0 511.996 511.996" width="512" xmlns="http://www.w3.org/2000/svg"><g><path d="m255.998 511.996c-18.102 0-32.83-14.727-32.83-32.829v-15.22h-21.089c-8.782 0-17.028-3.417-23.219-9.622-6.193-6.18-9.611-14.426-9.611-23.207 0-18.097 14.727-32.82 32.83-32.82h21.089v-38.465c-22.03-2.113-44.17-6.375-65.911-12.692-32.863-9.554-58.189-34.934-67.749-67.892-18.964-65.391-18.96-131.697.01-197.076 9.558-32.977 34.957-58.381 67.942-67.952 65.386-18.961 131.691-18.962 197.076 0 32.986 9.571 58.385 34.974 67.943 67.954 18.971 65.383 18.971 131.689 0 197.074-5.773 19.927-17.323 37.249-33.402 50.089-3.237 2.586-7.956 2.057-10.54-1.18-2.585-3.237-2.057-7.956 1.18-10.54 13.644-10.897 23.449-25.608 28.356-42.546 18.168-62.615 18.168-126.108.001-188.72-8.12-28.017-29.696-49.596-57.716-57.726-62.612-18.157-126.106-18.157-188.718 0-28.019 8.13-49.594 29.709-57.714 57.724-18.167 62.608-18.17 126.102-.011 188.72 8.121 27.997 29.627 49.554 57.53 57.666 23.029 6.691 46.51 10.975 69.789 12.733 3.912.295 6.935 3.556 6.935 7.479v52.849c0 4.142-3.358 7.5-7.5 7.5h-28.589c-9.831 0-17.83 7.994-17.83 17.82 0 4.768 1.853 9.243 5.218 12.601 3.368 3.376 7.844 5.229 12.612 5.229h24.509c6.385 0 11.58 5.195 11.58 11.58v18.64c0 9.831 7.998 17.83 17.83 17.83 4.761 0 9.238-1.855 12.607-5.223 3.37-3.363 5.223-7.838 5.223-12.606v-18.64c0-6.385 5.195-11.58 11.58-11.58h24.509c9.831 0 17.83-7.998 17.83-17.83 0-4.762-1.853-9.234-5.218-12.591-3.373-3.374-7.851-5.229-12.612-5.229h-28.589c-4.142 0-7.5-3.358-7.5-7.5v-52.849c0-3.924 3.024-7.184 6.936-7.479 23.188-1.746 46.602-6.014 69.593-12.684 1.917-.553 3.873-1.198 5.826-1.921 3.881-1.438 8.198.545 9.637 4.43 1.438 3.884-.545 8.199-4.43 9.637-2.297.851-4.607 1.612-6.866 2.263-21.685 6.292-43.755 10.536-65.697 12.638v38.464h21.089c8.768 0 17.012 3.415 23.213 9.617 6.199 6.186 9.617 14.428 9.617 23.203 0 18.102-14.727 32.829-32.829 32.829h-21.089v15.22c0 8.781-3.417 17.027-9.622 23.219-6.197 6.196-14.441 9.611-23.209 9.611zm.001-201.265c-28.212.001-56.414-4.062-84.428-12.188-16.215-4.7-28.703-17.188-33.404-33.404-16.251-56.021-16.251-112.833 0-168.855 2.988-10.302 9.064-19.122 17.57-25.508 3.312-2.487 8.014-1.817 10.501 1.495s1.817 8.014-1.496 10.501c-5.886 4.418-10.094 10.536-12.169 17.691-15.447 53.25-15.447 107.249 0 160.498 3.261 11.251 11.925 19.914 23.174 23.175 53.251 15.447 107.25 15.447 160.5 0 11.251-3.261 19.915-11.925 23.175-23.175 15.447-53.251 15.447-107.25 0-160.5-3.261-11.249-11.926-19.917-23.179-23.187-26.508-7.685-53.508-11.582-80.246-11.582-22.002 0-44.238 2.64-66.091 7.846-4.028.96-8.074-1.528-9.034-5.558-.96-4.029 1.528-8.074 5.558-9.034 22.99-5.477 46.396-8.254 69.567-8.254 28.151 0 56.557 4.097 84.427 12.177 16.22 4.714 28.706 17.205 33.405 33.415 16.251 56.021 16.251 112.832 0 168.855-4.7 16.215-17.188 28.703-33.405 33.403-28.006 8.125-56.22 12.188-84.425 12.189z"/></g></svg>