<svg id="Capa_1" enable-background="new 0 0 512 512" height="512" viewBox="0 0 512 512" width="512" xmlns="http://www.w3.org/2000/svg"><g><path d="m208.382 511.998c-17.315 0-34.558-4.454-49.866-12.879-31.014-17.077-59.049-38.04-83.325-62.306-24.27-24.28-45.232-52.314-62.307-83.326-17.178-31.229-17.178-68.507-.001-99.723 34.309-62.341 83.307-111.342 145.633-145.644 31.227-17.177 68.506-17.177 99.722 0 20.987 11.556 40.676 24.929 58.619 39.809l81.158-81.157h-56.933c-18.406 0-33.38-14.974-33.38-33.38 0-18.411 14.974-33.39 33.38-33.39h137.528c18.411 0 33.39 14.979 33.39 33.39v79.06c0 4.142-3.358 7.5-7.5 7.5s-7.5-3.358-7.5-7.5v-79.06c0-10.14-8.25-18.39-18.39-18.39h-137.529c-10.135 0-18.38 8.25-18.38 18.39 0 10.135 8.245 18.38 18.38 18.38h75.04c3.034 0 5.768 1.827 6.929 4.63 1.161 2.802.519 6.028-1.626 8.173l-98.84 98.839c-2.777 2.778-7.229 2.941-10.203.375-18.557-16.013-39.208-30.321-61.377-42.528-26.688-14.685-58.561-14.684-85.257.001-59.796 32.909-106.805 79.922-139.723 139.734-14.685 26.688-14.685 58.56 0 85.259 16.392 29.772 36.504 56.673 59.773 79.952 23.275 23.266 50.175 43.377 79.952 59.772 13.097 7.209 27.84 11.02 42.632 11.02 14.786 0 29.525-3.811 42.624-11.02 59.812-32.918 106.826-79.928 139.734-139.725 14.685-26.697 14.685-58.569 0-85.258-12.206-22.167-26.514-42.818-42.527-61.376-2.566-2.974-2.403-7.425.375-10.203l98.839-98.839c2.145-2.145 5.372-2.786 8.173-1.626 2.803 1.161 4.63 3.896 4.63 6.929v75.04c0 10.135 8.245 18.38 18.38 18.38 10.14 0 18.39-8.245 18.39-18.38v-28.47c0-4.142 3.358-7.5 7.5-7.5s7.5 3.358 7.5 7.5v28.47c0 18.406-14.978 33.38-33.39 33.38-18.406 0-33.38-14.974-33.38-33.38v-56.933l-81.157 81.158c14.879 17.943 28.252 37.632 39.807 58.618 17.178 31.217 17.178 68.496.001 99.722-34.302 62.327-83.303 111.325-145.644 145.635-15.306 8.424-32.546 12.877-49.854 12.877zm0-51.804c-8.552 0-17.1-2.144-24.896-6.434-53.608-29.498-95.746-71.636-125.244-125.245-4.206-7.631-6.429-16.241-6.429-24.895 0-8.567 2.183-17.104 6.313-24.687 1.981-3.637 6.536-4.98 10.174-2.999s4.98 6.536 2.999 10.174c-2.935 5.389-4.486 11.444-4.486 17.513 0 6.129 1.58 12.236 4.569 17.66 28.108 51.082 68.257 91.232 119.336 119.338 11.06 6.087 24.267 6.087 35.328 0 51.065-28.098 91.214-68.249 119.335-119.335 6.083-11.056 6.083-24.263-.001-35.329-28.111-51.07-68.261-91.22-119.334-119.333-11.063-6.083-24.271-6.084-35.327 0-42.532 23.414-77.628 55.303-104.312 94.779-2.32 3.432-6.982 4.333-10.414 2.013s-4.333-6.982-2.013-10.414c28.028-41.464 64.871-74.947 109.506-99.519 15.584-8.576 34.197-8.576 49.791-.002 53.604 29.506 95.742 71.644 125.246 125.245 8.576 15.596 8.576 34.209 0 49.792-29.513 53.616-71.651 95.755-125.244 125.244-7.795 4.288-16.347 6.433-24.897 6.434z"/></g></svg>